<?xml version="1.0" ?><!DOCTYPE svg  PUBLIC '-//W3C//DTD SVG 1.1//EN'  'http://www.w3.org/Graphics/SVG/1.1/DTD/svg11.dtd'><svg enable-background="new 0 0 512 512" height="512px" id="Layer_1" version="1.1" viewBox="0 0 512 512" width="512px" xml:space="preserve" xmlns="http://www.w3.org/2000/svg" xmlns:xlink="http://www.w3.org/1999/xlink"><path d="M511.999,432c0,44.182-35.816,80-80,80H80c-44.183,0-80-35.818-80-80V80C0,35.817,35.817,0,80,0h351.999  c44.184,0,80,35.817,80,80V432z" fill="#17B4EF"/><path d="M511.999,432V296.188L377.237,161.426l-0.648,0.576c21.103,26.177,33.742,59.46,33.742,95.699  c0,11.248-1.202,22.186-3.51,32.764c5.878,11.852,9.185,25.18,9.179,39.303c0,48.887-39.622,88.514-88.505,88.514  c-15.142,0-29.38-3.807-41.85-10.498c-9.065,1.674-18.384,2.559-27.94,2.559c-39.729,0-75.904-15.179-103.056-40.048L296.355,512  h135.644C476.183,512,511.999,476.182,511.999,432z" fill="#00779B"/><path d="M406.821,290.465c2.308-10.578,3.51-21.516,3.51-32.764c0-84.281-68.326-152.614-152.618-152.614  c-8.896,0-17.612,0.776-26.111,2.228c-13.633-8.596-29.78-13.596-47.083-13.596C135.627,93.719,96,133.353,96,182.25  c0,16.337,4.445,31.625,12.163,44.762c-2.035,9.91-3.085,20.186-3.085,30.689c0,84.309,68.319,152.641,152.627,152.641  c9.557,0,18.875-0.885,27.94-2.559c12.47,6.691,26.708,10.498,41.85,10.498c48.883,0,88.505-39.627,88.505-88.514  C416.006,315.645,412.699,302.316,406.821,290.465z" fill="#FFFFFF"/><path d="M406.821,290.465c2.203-10.1,3.386-20.531,3.489-31.244l-82.49-82.49l-5.906,21.988l-48-35l-68,12l-11,49  l109,41l18,27l-18,36l-72,11l-40.586,4.428l66.193,66.193c0.061,0,0.122,0.002,0.184,0.002c9.557,0,18.875-0.885,27.94-2.559  c12.47,6.691,26.708,10.498,41.85,10.498c48.883,0,88.505-39.627,88.505-88.514C416.006,315.645,412.699,302.316,406.821,290.465z" fill="#EAEAEA"/><path d="M335.987,330.646c-7.049,9.988-17.483,17.91-31.007,23.525c-13.386,5.561-29.431,8.393-47.688,8.393  c-21.917,0-40.309-3.867-54.649-11.477c-10.262-5.529-18.711-13.023-25.136-22.305c-6.47-9.332-9.758-18.609-9.758-27.566  c0-5.586,2.136-10.439,6.361-14.404c4.179-3.938,9.536-5.928,15.937-5.928c5.241,0,9.771,1.564,13.441,4.662  c3.513,2.99,6.516,7.4,8.946,13.088c2.71,6.209,5.648,11.438,8.767,15.535c3.002,3.975,7.303,7.303,12.805,9.91  c5.535,2.617,12.998,3.945,22.158,3.945c12.63,0,22.98-2.684,30.755-8.004c7.608-5.184,11.285-11.418,11.285-19.039  c0-6.025-1.921-10.752-5.878-14.486c-4.173-3.887-9.639-6.891-16.299-8.982c-6.929-2.158-16.351-4.498-27.992-6.941  c-15.855-3.391-29.303-7.418-40.004-11.953c-10.962-4.666-19.778-11.129-26.229-19.195c-6.547-8.213-9.874-18.48-9.874-30.588  c0-11.527,3.486-21.93,10.363-30.881c6.82-8.906,16.795-15.84,29.629-20.566c12.659-4.684,27.724-7.063,44.786-7.063  c13.626,0,25.601,1.59,35.612,4.683c10.066,3.13,18.545,7.36,25.208,12.563c6.705,5.256,11.705,10.848,14.848,16.688  c3.155,5.873,4.752,11.738,4.752,17.399c0,5.459-2.093,10.415-6.261,14.747c-4.187,4.339-9.446,6.54-15.668,6.54  c-5.649,0-10.084-1.386-13.15-4.085c-2.85-2.543-5.814-6.481-9.104-12.137c-3.804-7.222-8.409-12.928-13.696-16.949  c-5.14-3.912-13.71-5.877-25.498-5.877c-10.931,0-19.837,2.194-26.441,6.539c-6.367,4.161-9.465,8.951-9.465,14.619  c0,3.487,1.005,6.381,3.066,8.881c2.162,2.666,5.235,4.971,9.091,6.922c4.007,2.023,8.156,3.621,12.29,4.752  c4.236,1.184,11.351,2.928,21.111,5.18c12.348,2.658,23.715,5.623,33.741,8.843c10.181,3.257,18.946,7.246,26.122,11.922  c7.303,4.752,13.099,10.86,17.208,18.169c4.123,7.328,6.211,16.369,6.211,26.887C346.683,309.156,343.075,320.635,335.987,330.646z" fill="#17B4EF"/><path d="M298.204,300.943c0-6.025-1.921-10.752-5.878-14.486c-4.173-3.887-9.639-6.891-16.299-8.982  c-6.929-2.158-16.351-4.498-27.992-6.941c-15.855-3.391-29.303-7.418-40.004-11.953c-8.127-3.459-15.067-7.911-20.746-13.267  l81.624,81.624c7.004-1.233,13.036-3.552,18.01-6.955C294.527,314.799,298.204,308.564,298.204,300.943z" fill="#EAEAEA"/></svg>